<?xml version="1.0" standalone="no"?>
<!DOCTYPE svg PUBLIC "-//W3C//DTD SVG 20010904//EN"
 "http://www.w3.org/TR/2001/REC-SVG-20010904/DTD/svg10.dtd">
<svg version="1.0" xmlns="http://www.w3.org/2000/svg"
 width="267.000000pt" height="267.000000pt" viewBox="0 0 267.000000 267.000000"
 preserveAspectRatio="xMidYMid meet">
<metadata>
Created by potrace 1.14, written by Peter Selinger 2001-2017
</metadata>
<g transform="translate(0.000000,267.000000) scale(0.100000,-0.100000)"
fill="#000000" stroke="none">
<path d="M1110 2655 c-332 -64 -629 -257 -829 -539 -270 -381 -320 -901 -130
-1331 175 -395 519 -673 944 -761 122 -25 365 -26 485 0 88 19 232 61 262 77
10 5 25 9 33 9 8 0 15 4 15 8 0 5 24 22 53 37 92 50 195 122 256 177 119 109
253 295 314 438 20 47 43 100 52 117 9 18 20 58 26 90 5 32 18 99 28 148 15
71 18 123 16 245 -2 85 -8 175 -13 200 -57 259 -169 490 -319 661 -183 208
-413 346 -693 415 -92 22 -400 28 -500 9z m187 -111 c8 -21 -13 -42 -28 -27
-13 13 -5 43 11 43 6 0 13 -7 17 -16z m353 -34 c10 -7 12 -12 4 -17 -10 -7
-46 -204 -39 -212 8 -7 96 182 91 195 -6 16 12 18 34 4 10 -7 11 -10 2 -10 -6
0 -40 -56 -74 -125 -58 -115 -88 -152 -88 -107 0 10 7 69 16 131 8 63 13 122
11 132 -6 21 17 26 43 9z m-715 -60 c0 -8 -8 -16 -17 -18 -13 -2 -18 3 -18 18
0 15 5 20 18 18 9 -2 17 -10 17 -18z m365 -39 c0 -33 5 -63 10 -66 20 -12 9
-25 -20 -25 -27 0 -30 2 -20 20 7 13 7 39 2 75 -8 50 -7 55 10 55 15 0 18 -8
18 -59z m136 34 c36 -56 -14 -153 -65 -125 -35 18 -40 99 -10 137 18 21 57 16
75 -12z m-216 0 c15 -18 6 -45 -16 -45 -12 0 -15 7 -11 25 3 20 1 25 -12 23
-17 -4 -20 -49 -7 -101 7 -31 39 -37 55 -9 6 9 11 12 11 7 1 -29 -48 -45 -78
-26 -8 4 -18 27 -23 51 -8 34 -6 47 6 66 18 27 56 32 75 9z m-132 -17 c19 -19
15 -50 -5 -46 -10 2 -18 10 -18 18 0 8 -5 17 -10 20 -16 8 -18 -29 -5 -76 14
-47 40 -59 59 -26 10 16 10 16 11 0 0 -22 -35 -41 -61 -33 -22 7 -49 60 -49
96 0 45 50 75 78 47z m-243 -60 c17 -32 18 -41 7 -58 -10 -17 -10 -20 3 -20 9
0 38 -21 65 -46 31 -29 55 -44 65 -40 8 3 15 1 15 -4 0 -21 -43 -22 -69 -1
-73 59 -104 80 -112 75 -11 -6 49 -124 62 -124 18 0 8 -17 -15 -28 -21 -9 -24
-8 -23 6 1 21 -111 232 -124 232 -20 0 -7 17 24 33 50 25 79 18 102 -25z m130
-24 c10 -30 26 -59 34 -64 14 -9 14 -11 1 -20 -20 -13 -53 -13 -45 1 9 14 -21
93 -41 110 -14 12 -14 14 3 20 10 4 20 8 23 8 3 1 14 -24 25 -55z m819 20 c9
-8 16 -19 16 -23 0 -20 -29 -40 -60 -43 -30 -3 -35 -7 -35 -28 0 -21 4 -25 28
-23 15 1 25 -2 22 -8 -9 -13 -49 -11 -63 3 -16 16 -15 63 3 98 22 42 61 53 89
24z m76 -44 c0 -5 8 -10 19 -10 10 0 24 -7 31 -15 16 -19 3 -55 -21 -55 -23 0
-25 13 -4 33 16 17 10 28 -11 20 -20 -7 -67 -90 -59 -103 8 -13 2 -13 -30 2
-26 12 -34 28 -12 28 15 0 69 88 62 101 -4 5 1 9 9 9 9 0 16 -4 16 -10z m230
-52 c0 -5 -29 -44 -65 -87 -36 -43 -65 -87 -65 -97 -1 -18 -1 -18 -14 -1 -7 9
-18 17 -24 17 -23 0 -44 33 -37 59 15 61 105 109 122 66 4 -12 11 -8 29 17 13
17 24 38 24 46 0 12 3 12 15 2 8 -7 15 -17 15 -22z m-1446 -80 c37 -43 72 -78
78 -78 6 0 3 -9 -7 -20 -18 -20 -41 -28 -31 -11 7 10 -120 161 -136 161 -7 0
-6 5 2 15 7 9 16 14 20 13 4 -2 37 -38 74 -80z m-36 -90 c48 -49 93 -88 101
-88 11 0 10 -4 -4 -20 -22 -25 -31 -25 -37 -2 -6 21 -170 172 -188 172 -8 0
-4 10 11 26 16 17 25 21 27 12 3 -7 43 -52 90 -100z m1490 36 c23 -16 30 -58
12 -69 -6 -4 -27 -1 -46 5 -30 10 -39 10 -51 -3 -20 -20 -10 -47 18 -47 12 0
20 -3 16 -6 -12 -12 -56 6 -62 26 -8 26 19 76 53 94 34 19 33 19 60 0z m-743
-164 c9 -18 13 -41 10 -53 -4 -15 -3 -18 3 -9 7 11 10 11 15 -2 4 -9 2 -16 -3
-16 -19 0 -10 -25 12 -35 11 -6 28 -21 37 -35 15 -23 15 -24 -2 -11 -16 13
-16 11 -2 -22 22 -53 18 -56 -16 -17 -19 22 -26 27 -19 12 6 -12 31 -45 56
-73 32 -37 42 -55 35 -62 -8 -8 -5 -18 11 -34 12 -13 16 -23 10 -23 -6 0 -14
5 -17 10 -4 6 -10 8 -15 5 -8 -5 -25 12 -32 30 -1 6 -6 9 -10 8 -8 -3 -118
115 -118 126 0 5 28 -18 62 -51 72 -69 94 -83 104 -66 4 7 3 8 -4 4 -7 -4 -30
18 -57 56 -25 35 -49 68 -54 74 -6 7 -7 14 -5 17 10 9 -35 99 -46 92 -6 -4 -4
-18 7 -38 9 -18 16 -35 15 -39 -1 -5 2 -8 6 -8 5 0 9 -6 9 -12 0 -7 4 -22 8
-33 8 -19 6 -18 -17 3 -13 12 -27 20 -30 16 -4 -3 -11 4 -18 15 -12 23 -2 28
20 9 8 -8 7 -3 -3 14 -9 15 -17 37 -17 48 0 12 -7 35 -16 51 -23 45 -11 60 16
19 12 -19 19 -27 16 -17 -13 38 -18 67 -13 67 3 0 18 -19 32 -42 15 -24 24
-34 21 -23 -22 83 -19 98 9 45z m151 -52 c-5 -27 23 -104 44 -118 21 -15 39
-70 31 -93 -5 -14 -7 -35 -5 -48 4 -18 0 -15 -15 11 -24 42 -27 25 -6 -28 l16
-37 -25 30 c-14 17 -23 37 -20 45 4 8 8 24 11 35 4 16 3 17 -6 5 -9 -12 -11
-9 -11 15 l1 30 24 -40 c14 -22 25 -35 25 -28 0 6 3 19 7 29 4 11 3 15 -4 11
-6 -4 -14 4 -17 19 -9 34 -32 59 -39 41 -3 -6 -11 9 -18 35 -7 26 -16 45 -21
42 -4 -3 -8 3 -8 13 0 15 -2 15 -9 4 -7 -11 -11 -5 -16 21 -4 19 -5 46 -3 59
4 23 6 22 21 -11 11 -22 17 -28 16 -15 -1 11 -1 29 0 40 2 17 4 16 17 -9 10
-17 14 -40 10 -58z m84 42 c12 -45 30 -53 30 -14 0 14 4 23 10 19 6 -3 10 -23
10 -43 0 -28 -3 -33 -10 -22 -15 24 -12 -5 5 -47 19 -45 19 -58 0 -39 -8 8
-18 29 -21 46 -4 17 -9 28 -13 24 -3 -3 -11 16 -18 43 l-11 48 -1 -56 c-1 -32
6 -71 15 -90 9 -20 13 -24 10 -11 -6 29 10 19 30 -20 11 -21 18 -27 24 -18 5
8 13 -5 24 -36 15 -45 23 -100 9 -64 -3 8 -17 26 -30 40 l-24 25 17 -45 c9
-25 25 -54 35 -65 19 -19 19 -18 18 60 0 54 -3 74 -9 60 -8 -18 -9 -17 -9 7
-1 15 -5 29 -10 32 -17 11 -21 96 -6 132 8 19 17 34 20 34 4 0 4 -35 1 -77
l-6 -78 17 64 c10 36 24 67 32 69 10 3 12 0 8 -12 -4 -10 -8 -41 -9 -69 l-1
-52 -6 45 -7 45 -7 -32 c-5 -17 -4 -48 2 -70 6 -23 7 -66 2 -113 -8 -74 2
-150 20 -150 5 0 9 -11 9 -24 0 -14 5 -28 12 -32 7 -5 8 -3 3 6 -4 7 -2 16 6
21 19 12 36 115 29 180 l-6 54 -8 -50 c-11 -71 -17 -81 -10 -15 4 30 7 73 7
95 0 22 2 30 4 18 2 -13 11 -23 19 -23 10 0 14 13 14 48 -1 46 -1 47 -16 22
l-15 -25 7 25 c3 14 12 32 20 40 12 12 14 10 14 -18 0 -18 5 -32 10 -32 6 0
10 -8 10 -17 1 -14 6 -11 25 12 23 28 25 29 25 8 0 -16 4 -21 15 -17 18 7 18
4 4 -32 l-10 -28 22 19 c16 14 21 16 17 5 -3 -8 -8 -26 -12 -40 -5 -19 -2 -18
11 8 9 17 20 32 25 32 5 0 1 -15 -8 -32 l-17 -33 22 19 c27 24 34 17 21 -20
-9 -27 -9 -28 5 -10 20 26 31 13 17 -19 -17 -36 -15 -38 10 -21 30 21 41 20
33 -4 -4 -12 -2 -20 5 -20 16 0 -5 -36 -56 -97 -24 -28 -44 -59 -44 -70 0 -61
105 -206 213 -292 81 -65 87 -88 28 -125 -22 -14 -52 -28 -68 -32 -15 -4 -37
-15 -48 -25 -33 -30 -72 -39 -184 -45 -178 -9 -201 -17 -201 -73 0 -33 13 -45
55 -55 38 -10 55 -24 55 -46 0 -20 -36 -30 -110 -30 -43 0 -52 4 -80 36 -17
20 -36 47 -42 59 -8 17 -18 23 -36 21 -14 -2 -28 -9 -30 -15 -5 -16 27 -51 47
-51 26 0 61 -29 61 -51 0 -17 -8 -19 -89 -19 l-89 0 -41 40 c-22 22 -41 45
-41 51 0 8 -4 8 -12 1 -7 -6 -30 -13 -51 -17 -25 -5 -37 -12 -33 -20 2 -7 -1
-21 -8 -30 -13 -18 -36 -18 -193 0 -32 4 -43 1 -43 -9 0 -17 -80 -27 -125 -15
-17 5 -41 19 -51 30 -10 12 -36 30 -56 40 -21 11 -48 33 -60 49 -12 17 -27 29
-33 27 -56 -22 -71 -15 -39 17 14 15 13 16 -10 16 -14 0 -26 5 -26 10 0 6 2
10 4 10 2 0 20 7 40 15 45 19 48 10 4 -11 l-33 -15 35 6 c26 4 30 3 15 -4 -13
-6 -15 -10 -6 -10 11 -1 10 -5 -5 -16 -22 -17 -12 -20 18 -4 16 9 24 7 44 -12
13 -12 24 -18 24 -13 0 5 6 -2 13 -15 16 -32 37 -39 37 -12 0 32 15 25 29 -14
16 -45 48 -75 79 -75 21 0 22 2 12 15 -10 12 -10 15 4 15 22 0 20 13 -4 35
-23 21 -26 57 -6 74 8 7 17 23 20 37 4 14 11 22 17 19 5 -4 7 -16 3 -27 -5
-15 -3 -19 7 -13 8 5 4 -3 -8 -17 -29 -31 -29 -39 2 -68 20 -18 28 -21 37 -12
7 7 16 12 22 12 5 0 1 -6 -9 -14 -18 -13 -18 -14 4 -21 30 -9 109 12 141 39
14 11 19 14 13 6 -26 -29 -12 -33 20 -4 17 16 26 22 20 14 -7 -8 -13 -18 -13
-23 0 -13 52 2 73 20 9 9 17 12 17 7 0 -5 5 -2 10 6 6 10 10 11 10 3 0 -13 26
-13 46 -1 5 4 19 -9 29 -28 23 -42 64 -74 97 -74 18 0 20 2 8 10 -12 8 -9 10
13 10 l28 0 -22 29 c-12 17 -19 39 -17 56 2 24 11 31 51 45 27 8 53 23 58 33
6 9 15 17 20 17 6 0 7 -5 4 -10 -8 -13 -4 -13 39 5 20 9 41 13 46 10 5 -3 19
-1 32 6 13 7 64 11 132 10 111 -1 167 9 199 37 10 9 39 23 64 31 36 13 47 21
48 39 2 27 25 56 25 31 0 -8 -6 -21 -12 -28 -11 -10 -10 -11 4 -6 21 8 32 35
19 48 -17 17 -46 2 -52 -28 -5 -25 -7 -27 -14 -12 -4 10 -3 29 3 41 9 21 5 28
-44 71 -72 62 -148 171 -173 250 -22 66 -20 90 8 104 9 5 32 31 50 58 l34 48
-41 -40 c-47 -44 -51 -42 -21 16 11 23 15 38 9 34 -7 -4 -25 -35 -41 -69 -29
-63 -40 -65 -14 -3 23 57 16 58 -10 2 -28 -58 -33 -36 -10 41 12 43 12 47 -1
29 -28 -38 -57 -164 -34 -150 6 3 13 -1 16 -10 6 -13 8 -14 15 -3 6 8 9 1 9
-22 0 -29 -4 -36 -20 -36 -33 0 -47 63 -31 139 22 108 21 114 -4 42 -26 -76
-30 -120 -15 -159 11 -30 -3 -36 -19 -8 -6 10 -11 12 -11 4 0 -8 -5 -10 -12
-6 -10 6 -10 4 0 -7 27 -29 10 -29 -23 0 -42 36 -58 41 -28 9 39 -44 35 -53
-6 -13 -43 41 -57 39 -18 -3 12 -14 16 -22 10 -18 -7 4 -13 2 -13 -4 0 -6 -5
-8 -11 -4 -8 4 -8 0 0 -15 16 -29 3 -26 -33 6 -27 24 -26 23 3 -9 41 -45 47
-65 17 -64 -12 1 -20 -4 -18 -11 3 -18 -9 -16 -38 8 -21 17 -22 19 -3 10 29
-14 40 -14 25 1 -17 17 -15 31 3 24 20 -7 19 8 -2 25 -20 16 -60 39 -68 39
-13 0 -35 -63 -29 -85 6 -25 39 -55 59 -55 5 0 3 4 -5 10 -22 14 -8 19 20 8
15 -6 20 -12 12 -15 -10 -4 -10 -8 0 -21 12 -14 7 -15 -40 -9 -32 4 -50 2 -47
-3 4 -6 -4 -10 -17 -11 -13 -1 -39 -2 -58 -4 -33 -3 -98 21 -87 31 3 3 19 -2
36 -10 16 -9 34 -16 38 -16 4 1 -9 10 -30 21 -41 22 -45 39 -5 19 22 -11 22
-10 3 5 -11 8 -26 13 -33 10 -8 -3 -20 -1 -26 3 -13 10 -106 43 -106 37 0 -2
25 -15 55 -29 57 -26 76 -44 28 -25 -46 17 -123 62 -123 71 0 11 0 11 51 -8
24 -8 59 -17 77 -20 18 -2 64 -20 103 -40 82 -41 84 -28 3 17 -57 32 -75 51
-24 24 16 -8 33 -15 37 -15 4 1 -8 9 -27 19 -19 10 -40 17 -46 14 -7 -2 -27 3
-44 12 -17 9 -38 14 -45 11 -7 -2 -20 3 -29 13 -16 17 -15 19 4 24 11 3 18 2
15 -2 -2 -4 11 -15 30 -24 19 -9 35 -13 35 -9 0 4 10 8 23 7 25 0 99 -53 92
-65 -6 -10 19 -20 51 -20 l25 0 -22 31 c-16 23 -19 33 -10 39 9 5 1 14 -24 30
-20 12 -34 24 -31 27 3 3 15 -2 28 -11 12 -9 26 -16 31 -16 18 0 -18 33 -50
47 -18 7 -32 17 -31 21 1 4 -3 17 -10 28 -6 12 -9 24 -6 26 2 3 -9 11 -25 18
-17 7 -36 18 -42 26 -17 21 -34 17 -18 -3 8 -10 -4 -2 -26 18 -23 19 -62 50
-89 68 -26 18 -45 35 -43 38 7 6 84 -34 92 -47 11 -18 85 -61 95 -55 5 3 22
-1 37 -9 35 -18 107 -81 76 -66 -12 5 -25 15 -28 20 -3 5 -16 15 -28 21 -12 6
7 -17 43 -50 36 -33 59 -60 52 -61 -14 0 -7 -20 7 -20 12 0 7 30 -12 72 -23
50 -22 65 3 43 11 -10 18 -26 15 -35 -7 -24 17 -52 38 -44 19 7 22 25 7 40 -5
5 -19 27 -29 49 -11 22 -21 33 -21 25 -1 -8 -10 9 -21 39 -10 30 -17 56 -15
58 8 8 86 -128 80 -139 -4 -7 -3 -8 4 -4 11 6 38 -31 34 -47 -3 -10 46 -32 54
-24 19 19 6 159 -18 197 -7 11 -8 8 -4 -11 4 -17 -1 -30 -14 -41 -18 -16 -19
-15 -30 17 -6 19 -10 45 -7 57 3 21 5 19 17 -11 12 -31 14 -33 21 -15 10 26
11 36 1 30 -11 -7 -36 100 -27 114 3 5 1 10 -4 10 -6 0 -11 -7 -11 -15 0 -8
-4 -15 -9 -15 -5 0 -15 26 -21 58 -7 31 -15 73 -20 92 l-8 35 -2 -35 -2 -35
-8 40 c-10 50 -2 75 15 51 11 -15 13 -14 19 9 9 34 13 32 26 -15z m-176 -32
c10 -29 21 -59 23 -65 3 -7 -2 -13 -10 -13 -9 0 -19 18 -27 48 -7 26 -14 55
-17 65 -2 9 -1 17 4 17 5 0 17 -24 27 -52z m-141 -39 c3 -11 1 -16 -5 -13 -6
4 -8 -2 -4 -17 4 -13 -7 1 -23 31 -17 30 -30 62 -30 70 0 19 55 -44 62 -71z
m-92 40 c21 -17 39 -35 39 -40 0 -6 -4 -7 -10 -4 -23 14 -8 -16 16 -31 14 -10
23 -23 20 -31 -3 -8 -2 -11 3 -8 5 3 13 0 17 -6 4 -8 3 -9 -4 -5 -28 17 -8
-13 46 -69 31 -33 50 -54 43 -47 -24 20 -36 14 -16 -8 10 -11 15 -20 11 -20
-3 0 -19 14 -34 31 -16 18 -40 33 -56 34 -15 2 -39 13 -51 25 -13 12 -28 20
-33 16 -14 -9 -96 48 -127 88 -32 42 -27 56 10 32 25 -16 37 -44 13 -30 -8 5
-7 0 2 -10 13 -16 90 -56 106 -55 2 0 25 -12 51 -26 25 -15 44 -23 42 -18 -12
28 -86 122 -95 120 -11 -2 -84 57 -84 69 0 3 21 -6 46 -21 46 -27 49 -21 11
23 -29 32 -12 27 34 -9z m599 -37 c-4 -23 -10 -45 -13 -48 -8 -9 -27 5 -27 19
0 14 39 81 45 76 2 -2 0 -23 -5 -47z m-690 16 c17 -12 30 -26 30 -31 0 -5 -7
-3 -17 4 -14 12 -16 12 -11 -1 2 -8 13 -17 23 -19 25 -4 117 -62 111 -69 -3
-2 -12 0 -19 6 -8 7 -17 9 -20 5 -4 -3 -15 1 -24 9 -19 17 -62 33 -76 30 -5
-1 -6 2 -2 8 3 6 -3 22 -14 36 -36 46 -27 56 19 22z m-59 -65 c29 -32 53 -61
52 -65 -3 -7 61 -32 89 -34 10 -1 29 -9 43 -18 14 -9 31 -14 37 -10 6 4 8 3 5
-3 -3 -5 23 -32 58 -59 36 -27 65 -50 65 -52 0 -11 -50 15 -77 41 -18 17 -40
32 -49 33 -9 1 -26 11 -38 22 -11 10 -46 26 -77 36 -65 20 -102 43 -93 58 5 7
2 8 -5 3 -14 -8 -63 33 -55 46 10 17 -6 29 -26 19 -20 -11 -50 -4 -50 11 0 5
7 9 15 9 8 0 15 -4 15 -10 0 -5 7 -7 16 -3 8 3 13 12 10 19 -11 28 12 12 65
-43z m-134 -16 c-4 6 -3 15 3 18 14 9 120 -55 120 -72 0 -7 5 -13 10 -13 6 0
10 -5 10 -10 0 -6 -14 -3 -31 6 -17 8 -28 11 -25 5 13 -20 -10 -11 -55 20 -37
27 -40 28 -21 7 12 -13 19 -27 16 -31 -9 -8 12 -16 56 -20 20 -2 42 -7 50 -12
8 -5 15 -4 18 3 4 12 72 -5 108 -27 18 -11 18 -12 -3 -6 -13 4 -23 4 -23 2 0
-2 30 -26 66 -52 56 -42 64 -51 50 -60 -9 -7 -13 -15 -9 -19 4 -4 0 -4 -10 0
-32 12 -17 -5 28 -32 46 -26 59 -41 28 -30 -11 4 -8 -2 7 -14 14 -11 20 -20
13 -20 -6 0 -35 23 -64 50 -29 28 -57 50 -63 50 -6 0 -4 5 4 11 12 8 11 9 -6
4 -13 -3 -26 1 -34 10 -10 12 -10 15 4 15 9 0 31 -7 47 -16 41 -21 47 -11 10
15 -30 22 -56 31 -96 35 -32 3 -65 17 -65 27 0 12 11 11 59 -6 22 -8 41 -10
41 -5 0 18 -56 47 -100 53 -43 5 -44 5 -20 -8 33 -19 18 -19 -27 0 -19 8 -44
15 -55 15 -21 0 -78 51 -78 70 0 6 5 8 12 4 8 -5 9 -2 5 9 -22 54 -22 53 3 32
13 -11 20 -15 17 -8z m591 -27 c12 -18 22 -38 21 -44 0 -6 -6 -3 -12 7 -31 48
-35 48 -16 2 11 -27 24 -54 30 -59 5 -6 9 -15 9 -20 0 -6 -9 0 -20 14 -17 21
-19 22 -15 5 4 -11 -3 -4 -14 15 -10 19 -15 36 -10 38 5 2 2 19 -6 39 -18 43
-18 46 -2 41 6 -3 22 -19 35 -38z m263 -38 c-6 -2 -11 -21 -11 -42 0 -21 -4
-42 -10 -45 -13 -8 -13 15 1 73 16 71 22 81 27 47 2 -16 -1 -31 -7 -33z m-912
34 c19 -23 -4 -28 -24 -6 -15 17 -16 20 -3 20 9 0 21 -6 27 -14z m9 -42 c39
-23 42 -28 28 -36 -14 -8 -25 -3 -49 18 -18 16 -36 32 -41 36 -24 19 21 6 62
-18z m-63 -1 c20 -10 34 -22 31 -29 -3 -7 0 -15 7 -17 7 -3 -6 -4 -28 -2 -56
4 -55 4 -55 15 0 5 15 7 33 4 25 -3 27 -2 12 5 -21 9 -53 41 -42 41 4 0 22 -8
42 -17z m-64 -44 c25 -13 91 -20 189 -21 85 0 113 -5 104 -19 -3 -6 -27 -8
-52 -5 -26 3 -39 3 -29 0 9 -3 14 -10 11 -16 -5 -8 4 -9 27 -6 19 3 58 -2 89
-11 52 -16 53 -18 27 -24 -16 -4 -36 -3 -49 4 -12 6 -47 13 -78 14 -31 1 -70
10 -86 19 l-29 17 35 -7 c19 -3 32 -4 29 0 -9 9 -99 27 -150 29 -45 2 -115 35
-76 36 10 1 27 -4 38 -10z m109 -66 c3 -3 -13 -3 -35 0 -32 5 -35 5 -15 -3 14
-6 31 -19 37 -29 11 -18 10 -19 -25 -15 -28 3 -32 2 -17 -5 11 -5 45 -10 75
-10 64 -1 100 -9 100 -23 0 -25 -203 16 -234 48 -9 8 -20 13 -24 10 -5 -3 -24
4 -43 16 -45 28 -22 35 29 9 22 -11 60 -23 84 -26 l43 -6 -58 28 c-33 15 -56
31 -53 34 7 7 127 -19 136 -28z m912 -44 l-10 -34 -1 45 c-1 31 2 41 10 33 7
-7 7 -21 1 -44z m-802 11 c14 -5 54 -11 90 -15 79 -7 137 -24 120 -35 -7 -4 9
-19 45 -39 31 -18 55 -35 52 -37 -3 -3 -15 0 -27 6 -12 6 -24 9 -27 6 -3 -2
23 -19 58 -37 35 -17 58 -25 51 -16 -10 12 -10 16 2 20 8 3 16 3 18 -1 2 -4
18 -18 36 -31 18 -12 30 -27 27 -32 -4 -5 -1 -9 6 -9 7 0 10 -3 6 -6 -3 -4
-21 3 -39 14 -42 25 -83 38 -74 23 9 -14 9 -14 -59 9 -50 17 -56 18 -44 3 13
-15 -73 28 -126 64 -18 12 -18 13 10 13 32 0 74 -19 45 -20 -11 -1 104 -49
118 -50 14 -1 -19 26 -64 51 -30 17 -54 35 -54 40 0 4 7 6 15 3 8 -4 15 -3 15
0 0 13 -88 46 -104 40 -9 -4 -36 1 -60 10 -24 9 -48 16 -52 14 -17 -4 -84 13
-84 22 0 9 59 4 100 -10z m494 -11 c20 -17 39 -28 44 -25 4 2 9 -5 9 -16 2
-20 2 -20 -21 1 -12 12 -25 19 -27 16 -3 -3 -18 9 -34 25 -38 39 -16 39 29 -1z
m-721 -18 c8 -8 4 -11 -13 -11 -23 0 -23 0 -4 -15 18 -14 17 -14 -9 -5 -39 14
-47 12 -17 -5 35 -20 18 -19 -25 2 -44 21 -45 36 -2 29 l32 -6 -32 17 c-18 9
-33 20 -33 24 0 10 89 -16 103 -30z m913 -38 c13 -31 23 -58 20 -60 -2 -2 -9
10 -16 27 -7 16 -16 28 -20 25 -7 -5 -30 46 -30 67 0 22 23 -8 46 -59z m131
10 c-3 -10 -5 -2 -5 17 0 19 2 27 5 18 2 -10 2 -26 0 -35z m-443 3 c21 -14 44
-22 50 -20 6 2 17 -5 23 -15 21 -34 -4 -35 -46 -2 -21 17 -40 28 -43 26 -3 -3
-13 4 -23 15 -24 27 -9 25 39 -4z m-269 4 c-3 -5 2 -10 12 -11 14 0 12 -3 -6
-10 -17 -6 -35 -6 -60 3 l-36 13 45 6 c25 3 46 7 48 7 2 1 0 -2 -3 -8z m621
-35 c6 -25 7 -42 3 -38 -11 12 -28 83 -20 83 3 0 11 -20 17 -45z m-1073 18
c-7 -2 -21 -2 -30 0 -10 3 -4 5 12 5 17 0 24 -2 18 -5z m247 -3 c25 -8 25 -8
-5 -9 l-30 -2 30 -14 30 -14 -30 6 c-37 7 -95 30 -95 37 0 9 71 5 100 -4z
m120 -20 c14 -4 19 -8 12 -9 -7 -1 -10 -6 -6 -13 5 -7 2 -9 -9 -5 -9 3 -17 1
-19 -5 -6 -16 -128 -24 -128 -9 0 7 24 11 63 12 59 1 60 1 27 11 -31 9 -33 11
-15 19 25 9 43 9 75 -1z m-167 -19 c10 -11 8 -12 -8 -8 -11 3 -33 8 -50 11
l-30 5 30 -15 30 -14 -35 6 c-19 4 -48 8 -65 8 -16 1 -39 7 -50 14 -17 11 -5
12 73 9 59 -2 97 -8 105 -16z m604 -31 c43 -27 74 -50 69 -50 -5 0 1 -11 13
-24 21 -22 21 -24 4 -28 -10 -2 -33 7 -50 20 -38 28 -44 49 -10 31 20 -11 21
-11 8 4 -7 10 -21 17 -31 17 -9 0 -25 9 -35 20 -10 11 -26 20 -36 20 -10 0
-21 5 -24 10 -3 6 -1 10 5 10 6 0 8 5 5 10 -11 17 2 11 82 -40z m-814 20 c20
-1 20 -2 4 -11 -20 -11 -57 -3 -57 13 0 5 7 7 16 4 9 -3 25 -6 37 -6z m853
-11 c19 -22 19 -22 -3 -10 -13 6 -23 9 -23 6 0 -4 -5 -3 -10 0 -11 7 -4 25 9
25 4 0 16 -10 27 -21z m-386 0 c11 -7 6 -8 -19 -4 -25 6 -32 4 -26 -5 5 -8 3
-11 -5 -8 -8 2 -16 10 -18 16 -5 15 47 16 68 1z m-223 -23 c4 -3 -7 -6 -23 -7
-23 -1 -19 -4 21 -15 l50 -13 -45 6 c-25 3 -72 7 -105 8 -57 3 -115 18 -115
30 0 8 209 -1 217 -9z m113 -5 l-35 -7 39 -8 c21 -4 36 -9 34 -12 -8 -7 -118
18 -118 27 0 5 26 8 58 8 49 -1 52 -3 22 -8z m140 -5 l55 -13 -38 -6 c-40 -6
-101 9 -91 24 6 11 6 11 74 -5z m-470 -6 c11 -7 6 -10 -22 -10 -20 0 -40 5
-43 10 -8 13 45 13 65 0z m-15 -30 c7 -11 -5 -13 -45 -10 -45 3 -47 20 -3 20
23 0 45 -4 48 -10z m90 1 c18 -7 17 -8 -7 -14 -30 -8 -61 1 -52 14 6 11 31 11
59 0z m145 0 c21 -6 16 -8 -28 -14 -59 -7 -93 0 -70 14 15 10 63 10 98 0z
m369 -7 c29 -8 51 -17 48 -20 -2 -2 -17 0 -33 6 -27 9 -28 9 -10 -5 11 -8 17
-15 13 -15 -14 0 -77 34 -77 42 0 10 -2 11 59 -8z m-224 -2 l-30 -5 30 -8 c19
-5 10 -6 -25 -2 -86 8 -96 23 -15 21 39 0 57 -3 40 -6z m148 -13 c44 -12 51
-34 8 -26 -16 3 -44 13 -62 21 -31 13 -32 14 -9 15 14 1 42 -4 63 -10z m607
-9 c6 -11 8 -20 6 -20 -3 0 -10 9 -16 20 -6 11 -8 20 -6 20 3 0 10 -9 16 -20z
m-1115 -1 c11 -1 4 -5 -15 -9 -41 -10 -92 -2 -84 12 4 6 23 8 43 4 20 -3 45
-6 56 -7z m100 1 c3 -5 18 -11 33 -11 27 -1 27 -1 -3 -8 -29 -7 -29 -7 14 -14
24 -4 41 -10 38 -13 -3 -3 -31 -1 -63 5 -67 13 -94 30 -48 32 29 1 29 1 4 9
-23 7 -23 8 -3 9 12 1 25 -3 28 -9z m179 -15 c-20 -15 -46 -18 -81 -9 -39 11
-14 24 45 24 51 0 54 -1 36 -15z m162 -12 c-29 -3 -36 -7 -25 -14 9 -6 -1 -7
-31 -3 -83 12 -78 23 10 22 47 -1 67 -3 46 -5z m-381 -12 c20 -8 20 -8 -2 -15
-25 -8 -73 2 -73 15 0 11 47 11 75 0z m545 -15 c34 -16 30 -16 -20 -1 -22 6
-20 3 10 -20 34 -27 34 -27 8 -21 -51 12 -29 -10 23 -23 36 -9 47 -16 38 -22
-19 -12 -6 -11 26 1 18 7 33 7 46 0 11 -6 19 -7 19 -2 0 9 63 -8 76 -20 3 -3
-17 -5 -44 -5 -28 1 -48 5 -46 8 2 4 -3 9 -11 13 -9 3 -15 0 -15 -9 0 -16 -18
-30 -28 -20 -3 3 0 10 8 16 11 6 6 7 -15 4 -21 -4 -42 2 -70 19 -22 14 -57 34
-77 46 -47 25 -48 35 -5 26 l32 -6 -30 21 -30 21 35 -5 c19 -3 51 -12 70 -21z
m-295 7 c-17 -5 -15 -7 10 -18 30 -12 30 -12 -27 -20 -32 -4 -70 -4 -85 1 -26
7 -24 9 22 14 28 4 40 8 28 8 -12 1 -25 7 -28 12 -4 6 14 10 47 9 29 -1 44 -4
33 -6z m-365 -13 c-36 -12 -70 -12 -70 0 0 6 21 10 48 9 38 -1 42 -2 22 -9z
m526 -15 c18 -14 18 -14 -6 -15 -14 0 -43 3 -65 7 -31 5 -35 8 -20 14 32 12
70 10 91 -6z m-325 -4 c-11 -7 -9 -10 10 -14 13 -3 -5 -3 -41 -1 -49 3 -61 2
-50 -7 12 -9 11 -10 -5 -4 -11 3 -42 8 -70 11 -37 3 -44 1 -25 -5 21 -7 16 -9
-27 -10 -64 -1 -79 16 -21 23 24 3 54 7 68 10 54 8 175 6 161 -3z m566 -43
c-11 -6 -27 -3 -47 7 -46 24 -36 36 16 18 37 -12 43 -18 31 -25z m-347 12 c22
-7 21 -8 -12 -9 -33 -1 -67 -21 -36 -21 8 0 7 -4 -4 -11 -20 -11 -100 -1 -92
12 3 5 22 9 42 9 34 0 35 1 16 15 -18 13 -16 14 21 14 22 -1 51 -5 65 -9z
m134 4 c9 -3 16 -10 16 -15 0 -14 -61 -10 -95 6 l-30 13 47 1 c25 1 53 -2 62
-5z m-299 -12 c-37 -4 -38 -5 -15 -13 21 -7 20 -8 -10 -5 -49 5 -225 -29 -187
-36 15 -3 30 -2 33 3 2 4 27 5 55 2 35 -4 53 -2 59 6 5 9 21 11 56 5 38 -5 45
-9 29 -15 -11 -4 41 -5 115 -3 97 4 131 3 120 -5 -9 -7 -10 -11 -3 -11 20 0
24 18 6 29 -14 8 2 10 62 11 49 0 75 -4 66 -9 -10 -6 -2 -11 25 -15 74 -12
155 -15 149 -5 -8 11 15 12 33 0 10 -6 3 -10 -22 -15 -20 -4 -41 -4 -47 -1 -6
4 -18 0 -27 -8 -24 -20 -84 -29 -113 -17 -23 10 -22 10 6 6 28 -4 28 -3 10 10
-14 10 -15 14 -4 15 19 1 -31 17 -56 17 -17 1 -16 -1 4 -9 17 -7 21 -13 14
-20 -8 -8 -17 -8 -31 0 -11 6 -29 11 -39 10 -15 0 -14 -2 5 -9 12 -5 22 -14
22 -20 0 -5 17 -11 38 -11 30 -2 32 -3 10 -6 -16 -2 -28 -8 -28 -13 0 -5 -17
-14 -37 -19 -21 -5 -57 -15 -80 -21 -31 -8 -41 -15 -37 -25 4 -9 0 -15 -9 -15
-9 0 -24 -3 -34 -6 -15 -5 -15 -4 -3 5 13 9 12 11 -5 12 l-20 0 20 9 c14 6 15
9 5 10 -25 2 31 22 80 29 l45 6 -72 20 c-40 10 -73 22 -73 27 0 15 89 9 97 -7
5 -8 31 -18 58 -22 46 -6 49 -5 36 10 -7 10 -10 17 -5 18 5 0 -2 5 -16 10 -14
6 -56 12 -95 14 -38 2 -74 4 -80 5 -5 1 -23 2 -40 1 -24 -1 -27 -3 -15 -12 12
-8 10 -9 -10 -5 -14 3 -33 6 -43 6 -10 0 -16 4 -12 9 7 12 -28 17 -85 12 -42
-4 -43 -5 -15 -12 22 -5 7 -7 -50 -9 -49 -2 -65 -5 -40 -7 46 -5 72 -23 35
-24 -22 0 -20 -2 10 -14 34 -13 35 -13 7 -14 -16 -1 -26 -5 -22 -11 10 -15 55
-12 61 5 4 10 20 15 49 15 24 0 47 5 50 10 3 6 26 10 51 10 25 0 43 -4 40 -9
-4 -5 -3 -11 1 -14 5 -2 2 -2 -6 0 -7 2 -37 0 -65 -4 l-51 -7 35 -7 c19 -4 57
-5 85 -2 38 3 46 2 35 -6 -10 -7 -52 -9 -120 -6 -58 3 -99 2 -92 -1 6 -3 12
-17 12 -30 0 -22 -4 -24 -44 -24 -53 0 -70 17 -24 23 29 3 28 4 -9 5 -43 2
-58 17 -25 25 13 4 12 5 -4 6 -12 0 -24 -5 -27 -13 -6 -14 -64 -32 -74 -22 -3
3 10 12 28 20 25 10 29 15 14 15 -31 2 2 20 40 22 17 1 6 5 -25 8 l-55 7 35
11 35 11 -32 1 c-38 1 -44 18 -10 25 12 3 31 7 42 9 12 3 7 5 -12 6 -33 1 -44
15 -20 24 6 3 -2 6 -20 6 -35 1 -51 16 -27 25 9 3 34 5 57 5 23 -1 34 -3 25
-6 -10 -2 -18 -9 -18 -14 0 -12 47 -12 55 1 3 6 28 10 56 10 27 0 49 5 49 10
0 6 25 9 58 8 49 -1 51 -2 17 -6z m214 -22 c14 -1 14 -2 -2 -11 -21 -12 -77
-2 -77 13 0 6 12 8 31 4 17 -3 39 -6 48 -6z m909 -38 c4 -40 -12 -62 -44 -62
-22 0 -54 33 -54 57 0 23 32 44 64 41 27 -3 31 -7 34 -36z m-1215 21 c-7 -2
-19 -2 -25 0 -7 3 -2 5 12 5 14 0 19 -2 13 -5z m66 -68 c-10 -11 -25 -13 -48
-9 -41 8 -22 24 29 24 31 0 33 -2 19 -15z m-249 -45 c0 -5 -9 -10 -21 -10 -11
0 -17 5 -14 10 3 6 13 10 21 10 8 0 14 -4 14 -10z m287 -37 c16 -6 15 -8 -7
-14 l-25 -7 25 -1 c14 -1 41 3 59 9 19 5 37 7 40 4 3 -2 -5 -7 -17 -11 -12 -3
-22 -9 -22 -14 0 -5 -11 -15 -25 -21 -16 -7 -21 -14 -14 -19 7 -4 -4 -12 -25
-19 -21 -7 -40 -10 -43 -6 -3 3 7 8 23 12 25 6 26 8 9 15 -33 13 -73 10 -78
-5 -4 -9 1 -16 11 -19 9 -2 -1 -7 -23 -11 -22 -4 -53 -12 -69 -17 -16 -5 -41
-9 -55 -8 -18 0 -3 9 46 27 77 29 97 42 67 42 -16 1 -15 3 6 15 14 8 34 15 45
15 11 1 14 4 8 7 -20 8 -15 21 10 26 12 2 25 5 29 6 3 0 15 -2 25 -6z m-222
-23 c-14 -6 -16 -9 -5 -10 8 -1 4 -6 -10 -10 -37 -12 -62 -12 -55 1 9 13 44
28 70 28 l20 0 -20 -9z m40 -30 c-18 -8 -18 -9 5 -10 14 -2 -4 -8 -40 -15 -62
-13 -81 -12 -67 1 10 10 81 33 102 33 l20 0 -20 -9z m709 -150 c-10 -16 -20
-27 -22 -25 -5 5 26 55 34 55 3 0 -3 -13 -12 -30z m-794 -215 c0 -2 -15 -32
-33 -65 -26 -46 -36 -57 -45 -48 -14 14 -16 32 -3 24 14 -9 21 20 8 33 -14 14
-34 14 -39 0 -2 -7 -9 -5 -17 5 -12 14 -11 16 5 16 11 0 37 9 59 19 40 19 65
25 65 16z m1588 -14 c26 -11 53 -21 60 -23 10 -2 7 -9 -9 -23 -12 -11 -19 -15
-16 -8 12 19 -14 27 -31 9 -16 -16 -16 -18 1 -30 13 -11 14 -16 5 -23 -10 -8
-21 6 -46 53 -18 35 -28 64 -22 64 6 0 32 -9 58 -19z m-1509 -75 l33 -34 -61
-18 c-58 -16 -61 -18 -45 -35 9 -10 22 -15 30 -12 17 6 19 -13 3 -23 -6 -3
-27 9 -46 29 l-36 35 62 17 c50 14 59 20 50 31 -6 8 -20 14 -31 14 -17 0 -18
3 -8 15 7 8 13 15 14 15 1 0 17 -15 35 -34z m1368 -10 c-7 -17 57 -81 72 -72
6 4 11 16 11 28 0 17 2 18 15 8 14 -12 12 -17 -17 -47 -33 -34 -51 -43 -42
-20 3 8 -13 30 -34 49 -37 33 -38 37 -24 52 20 20 26 20 19 2z m-1277 -69 c0
-4 -4 -6 -9 -3 -9 6 -61 -66 -61 -84 0 -13 -13 -13 -26 0 -8 8 -1 22 23 47 18
20 33 45 33 55 0 16 3 16 20 6 11 -7 20 -16 20 -21z m1245 -12 c14 -13 25 -34
25 -46 0 -30 -28 -59 -57 -59 -52 0 -82 72 -46 112 22 25 49 23 78 -7z m-1181
-26 c35 -21 46 -42 26 -54 -5 -3 -10 3 -10 13 0 25 -25 35 -40 17 -15 -18 -4
-36 16 -28 14 5 15 3 4 -16 -11 -21 -12 -22 -24 -5 -13 17 -14 16 -25 -4 -9
-18 -8 -23 7 -31 13 -7 22 -7 30 1 14 14 16 -1 3 -20 -7 -11 -17 -8 -51 15
-25 16 -37 29 -29 31 18 3 62 79 54 92 -9 15 0 12 39 -11z m1054 -39 c5 -13 3
-13 -11 -1 -40 32 -65 -41 -27 -79 29 -29 54 -23 62 15 5 19 5 19 13 1 17 -39
-60 -63 -97 -29 -23 20 -23 70 -1 95 19 22 54 20 61 -2z m-972 -8 c6 -4 15
-26 19 -49 8 -49 17 -54 33 -19 7 17 7 27 -1 35 -16 16 6 14 29 -4 12 -9 14
-14 6 -15 -7 0 -22 -22 -34 -50 -21 -50 -38 -65 -38 -32 0 9 -5 35 -12 57
l-11 40 -13 -30 c-7 -16 -10 -38 -8 -48 5 -17 3 -17 -16 -7 -13 7 -18 15 -12
19 15 9 43 83 38 98 -6 14 3 17 20 5z m849 -32 c-9 -14 25 -100 39 -100 15 0
-16 -20 -32 -20 -7 0 -11 4 -8 9 8 13 -24 101 -37 101 -16 0 15 20 31 20 7 0
10 -5 7 -10z m-686 -31 c56 -20 62 -92 10 -120 -31 -16 -109 6 -86 24 17 13
39 85 31 99 -7 11 7 10 45 -3z m614 -13 c3 -8 3 -22 1 -33 -3 -10 4 -28 15
-39 11 -12 17 -25 14 -28 -12 -12 -24 -6 -35 19 -12 27 -38 34 -38 11 0 -8 7
-22 16 -30 8 -9 12 -16 7 -16 -4 0 -19 -3 -33 -7 -21 -5 -23 -4 -13 8 9 11 8
26 -6 66 -16 47 -16 53 -2 56 35 10 69 6 74 -7z m-139 -12 c17 -7 22 -34 6
-34 -5 0 -10 5 -10 10 0 18 -39 10 -50 -10 -20 -38 19 -104 50 -85 14 9 12 42
-2 48 -7 3 -1 6 13 6 23 1 26 -2 21 -26 -6 -32 -18 -43 -49 -43 -59 0 -84 82
-37 119 29 23 34 24 58 15z m-328 -75 c6 -35 11 -64 10 -65 0 0 -12 3 -26 7
-14 4 -19 7 -12 8 17 1 15 31 -3 31 -24 0 -30 -4 -29 -17 1 -7 -6 -13 -16 -13
-15 0 -13 8 14 60 17 33 35 58 41 57 5 -2 15 -32 21 -68z m174 58 c0 -2 11
-31 24 -65 l25 -62 -27 0 c-19 0 -23 3 -13 9 17 11 6 31 -19 31 -21 0 -35 -26
-17 -34 7 -2 3 -5 -8 -5 l-21 -1 20 65 c12 36 24 65 28 65 5 0 8 -1 8 -3z"/>
<path d="M1380 2440 c-17 -31 -9 -104 11 -108 13 -2 18 8 23 43 11 72 -10 111
-34 65z"/>
<path d="M760 2375 c0 -19 32 -85 41 -85 3 0 12 7 19 15 19 22 -11 85 -40 85
-11 0 -20 -7 -20 -15z"/>
<path d="M1753 2358 c-24 -31 -24 -38 0 -38 29 0 42 23 23 39 -10 8 -16 8 -23
-1z"/>
<path d="M1946 2186 c-40 -48 -45 -66 -18 -66 24 0 86 76 78 96 -9 23 -23 17
-60 -30z"/>
<path d="M2072 2118 c-16 -16 -15 -25 4 -32 21 -8 45 11 37 30 -6 17 -25 18
-41 2z"/>
<path d="M1387 1828 c9 -10 19 -15 22 -12 3 4 0 9 -7 11 -6 3 -10 8 -8 12 3 4
-1 8 -9 8 -13 0 -12 -4 2 -19z"/>
<path d="M1462 1930 c0 -14 2 -19 5 -12 2 6 2 18 0 25 -3 6 -5 1 -5 -13z"/>
<path d="M1501 1924 c0 -11 3 -14 6 -6 3 7 2 16 -1 19 -3 4 -6 -2 -5 -13z"/>
<path d="M1671 1874 c0 -11 3 -14 6 -6 3 7 2 16 -1 19 -3 4 -6 -2 -5 -13z"/>
<path d="M1821 1733 c-15 -74 -15 -91 1 -75 10 10 23 132 14 132 -2 0 -8 -26
-15 -57z"/>
<path d="M1861 1772 c-8 -14 -6 -19 5 -19 7 0 14 9 14 19 0 10 -2 18 -5 18 -2
0 -9 -8 -14 -18z"/>
<path d="M1882 1735 c-17 -37 -14 -45 4 -12 9 16 14 31 11 33 -2 2 -9 -7 -15
-21z"/>
<path d="M1902 1718 c-7 -7 -12 -21 -12 -32 1 -18 3 -17 16 7 17 31 15 44 -4
25z"/>
<path d="M1851 1694 c0 -11 3 -14 6 -6 3 7 2 16 -1 19 -3 4 -6 -2 -5 -13z"/>
<path d="M1950 1685 c-7 -9 -11 -18 -8 -20 3 -3 11 1 18 10 7 9 11 18 8 20 -3
3 -11 -1 -18 -10z"/>
<path d="M1841 1644 c0 -11 3 -14 6 -6 3 7 2 16 -1 19 -3 4 -6 -2 -5 -13z"/>
<path d="M1621 1635 c1 -19 18 -51 18 -35 0 8 -4 22 -9 30 -5 8 -9 11 -9 5z"/>
<path d="M1808 1581 c-5 -18 -8 -48 -8 -65 1 -26 2 -28 11 -13 5 9 9 39 7 65
-3 46 -3 46 -10 13z"/>
<path d="M1984 1558 c-28 -27 -41 -47 -36 -55 5 -8 21 6 50 43 23 29 39 54 36
54 -3 0 -25 -19 -50 -42z"/>
<path d="M1707 1550 c6 -49 23 -91 22 -55 0 11 -7 38 -14 60 l-14 40 6 -45z"/>
<path d="M1536 1507 c3 -10 9 -15 12 -12 3 3 0 11 -7 18 -10 9 -11 8 -5 -6z"/>
<path d="M1600 1496 c0 -2 8 -10 18 -17 15 -13 16 -12 3 4 -13 16 -21 21 -21
13z"/>
<path d="M1872 1470 c0 -14 2 -19 5 -12 2 6 2 18 0 25 -3 6 -5 1 -5 -13z"/>
<path d="M1505 1450 c10 -11 20 -20 23 -20 3 0 -3 9 -13 20 -10 11 -20 20 -23
20 -3 0 3 -9 13 -20z"/>
<path d="M1623 885 c-13 -5 -23 -16 -23 -24 0 -24 38 -77 64 -89 29 -13 41 -5
23 16 -9 12 -5 11 22 -2 18 -10 30 -13 27 -7 -9 14 9 14 35 1 11 -6 19 -7 19
-2 0 6 -20 15 -44 21 -45 11 -76 43 -76 79 0 21 -14 23 -47 7z"/>
<path d="M1135 760 c-4 -6 12 -10 40 -10 28 0 44 4 40 10 -3 6 -21 10 -40 10
-19 0 -37 -4 -40 -10z"/>
<path d="M1545 750 c3 -5 16 -10 28 -9 21 0 21 1 2 9 -28 12 -37 12 -30 0z"/>
<path d="M959 1800 c13 -11 28 -20 35 -20 6 0 0 9 -14 20 -33 26 -52 25 -21 0z"/>
<path d="M1220 1616 c0 -3 9 -10 20 -16 11 -6 20 -8 20 -6 0 3 -9 10 -20 16
-11 6 -20 8 -20 6z"/>
<path d="M1267 1439 c7 -7 15 -10 18 -7 3 3 -2 9 -12 12 -14 6 -15 5 -6 -5z"/>
<path d="M1098 1263 c7 -3 16 -2 19 1 4 3 -2 6 -13 5 -11 0 -14 -3 -6 -6z"/>
<path d="M1248 1183 c7 -3 16 -2 19 1 4 3 -2 6 -13 5 -11 0 -14 -3 -6 -6z"/>
<path d="M780 1030 c-21 -7 -19 -8 17 -9 23 -1 45 4 48 9 7 12 -29 12 -65 0z"/>
<path d="M708 973 c7 -3 16 -2 19 1 4 3 -2 6 -13 5 -11 0 -14 -3 -6 -6z"/>
<path d="M518 633 c-20 -5 -24 -18 -9 -28 6 -3 15 4 21 15 6 11 9 19 8 19 -2
-1 -11 -3 -20 -6z"/>
<path d="M2126 615 c7 -17 20 -20 28 -6 3 5 -1 12 -10 15 -22 9 -24 8 -18 -9z"/>
<path d="M1910 452 c0 -35 39 -75 63 -66 38 14 5 94 -39 94 -20 0 -24 -5 -24
-28z"/>
<path d="M1017 283 c-14 -45 -13 -48 5 -51 27 -5 48 16 48 47 0 26 -16 51 -32
51 -4 0 -14 -21 -21 -47z"/>
<path d="M1608 324 c-7 -7 2 -44 11 -44 14 0 29 23 24 36 -5 14 -25 19 -35 8z"/>
<path d="M1157 266 c-4 -10 -5 -21 -2 -24 9 -9 17 6 13 25 -3 17 -4 17 -11 -1z"/>
<path d="M1350 241 c0 -12 5 -21 10 -21 6 0 10 6 10 14 0 8 -4 18 -10 21 -5 3
-10 -3 -10 -14z"/>
</g>
</svg>
